<svg width="15" height="25" viewBox="0 0 15 25" fill="none" xmlns="http://www.w3.org/2000/svg">
<path d="M14.0617 13.8442C13.8592 13.4691 13.6425 13.1512 13.4119 12.8911C13.1814 12.6307 12.8797 12.3928 12.5063 12.1768C12.1334 11.9607 11.8034 11.793 11.517 11.6731C11.2306 11.5529 10.8466 11.4321 10.3651 11.3103C9.884 11.1884 9.50496 11.1022 9.2286 11.0512C8.95192 11.0004 8.55337 10.9349 8.03321 10.8547C7.57153 10.7812 7.2271 10.7232 6.99962 10.6811C6.77237 10.6387 6.4716 10.574 6.09712 10.4867C5.72284 10.3995 5.43853 10.3122 5.24443 10.2249C5.05038 10.1377 4.83923 10.0255 4.61085 9.88839C4.38248 9.7513 4.20856 9.59077 4.08896 9.40692C3.96955 9.22299 3.88472 9.01272 3.83473 8.77612C3.70402 8.15746 3.86981 7.59468 4.33242 7.0883C4.79507 6.58191 5.45812 6.2374 6.32152 6.05498C6.70301 5.97437 7.10299 5.94445 7.52017 5.96574C7.93735 5.98702 8.30085 6.03348 8.6105 6.10599C8.92038 6.17846 9.21686 6.26795 9.50048 6.37429C9.78409 6.48078 9.98669 6.56383 10.1086 6.62362C10.2304 6.68349 10.3082 6.72404 10.3409 6.74569C10.4785 6.81167 10.6076 6.81761 10.7291 6.76352C10.8634 6.72565 10.9526 6.63064 10.9967 6.47889L11.68 4.25268C11.7505 4.04773 11.6915 3.87957 11.5022 3.74834C11.4361 3.70528 11.3547 3.65599 11.257 3.60054C11.16 3.5449 10.9549 3.45046 10.6416 3.31692C10.3287 3.18347 10.0041 3.0738 9.66812 2.98791C9.33185 2.90224 8.9042 2.83327 8.38528 2.7814C7.86661 2.72922 7.34228 2.73078 6.81261 2.7857L6.30501 0.383241C6.27811 0.255925 6.21516 0.159848 6.1163 0.0951336C6.01728 0.0306505 5.90404 0.011675 5.77661 0.0386L3.93619 0.427453C3.81807 0.452411 3.72496 0.517181 3.65691 0.621907C3.58886 0.726633 3.56732 0.838064 3.59232 0.956392L4.11144 3.41335C2.74226 3.98772 1.71238 4.84225 1.02173 5.9768C0.331189 7.11138 0.118372 8.3064 0.383725 9.5623C0.462546 9.93535 0.576299 10.282 0.724656 10.6023C0.872977 10.9228 1.0324 11.2052 1.20274 11.4496C1.37303 11.6942 1.59016 11.9239 1.85395 12.1391C2.11772 12.3543 2.36255 12.5355 2.5882 12.6826C2.81394 12.8296 3.09794 12.9717 3.44002 13.1085C3.78233 13.2454 4.07321 13.3528 4.31277 13.4305C4.55229 13.5077 4.86614 13.5892 5.25403 13.6733C5.64211 13.7577 5.94711 13.8191 6.16895 13.858C6.39073 13.8966 6.6942 13.9514 7.07946 14.0218C7.61052 14.1092 8.00536 14.1803 8.26373 14.2351C8.52229 14.2898 8.85285 14.3721 9.25599 14.4818C9.65876 14.5914 9.96053 14.7059 10.1615 14.8251C10.3623 14.9443 10.5548 15.1033 10.7393 15.3019C10.9238 15.5005 11.043 15.7272 11.0969 15.9821C11.2488 16.701 11.0866 17.3151 10.6101 17.8242C10.134 18.3336 9.52764 18.6661 8.79163 18.8216C8.45569 18.8926 8.11153 18.9275 7.76003 18.9258C6.52855 18.9385 5.30426 18.603 4.08701 17.9192L4.05398 17.8977C3.95105 17.8151 3.83328 17.7972 3.70098 17.8442C3.55938 17.8931 3.46636 17.9699 3.42208 18.0745L2.40727 20.2137C2.30936 20.4245 2.35798 20.609 2.55281 20.7675C2.60986 20.8125 2.7067 20.8778 2.84327 20.9628C2.98022 21.0482 3.22753 21.1739 3.58548 21.3412C3.94345 21.5081 4.3258 21.6551 4.7327 21.7833C5.13948 21.9112 5.64337 22.0161 6.2447 22.0983C6.84595 22.1801 7.45495 22.1987 8.07207 22.1538L8.57677 24.5425C8.6018 24.661 8.66662 24.7541 8.77118 24.8224C8.87585 24.8908 8.98711 24.9122 9.10524 24.8872L10.9457 24.4984C11.0731 24.4715 11.169 24.4085 11.2334 24.3094C11.2978 24.2104 11.3164 24.0971 11.2894 23.9694L10.7847 21.5807C12.18 21.0388 13.2233 20.1695 13.915 18.973C14.6067 17.7763 14.8057 16.4819 14.5115 15.0897C14.4149 14.6349 14.2656 14.2197 14.0617 13.8442Z" fill="#79A164" fill-opacity="0.5"/>
</svg>
