<svg width="22" height="36" viewBox="0 0 22 36" fill="none" xmlns="http://www.w3.org/2000/svg">
<path d="M20.241 19.9827C19.9503 19.4591 19.6381 19.0159 19.3049 18.6539C18.9718 18.2915 18.5347 17.9617 17.9926 17.6632C17.4512 17.3649 16.972 17.1337 16.5555 16.969C16.1393 16.8041 15.5806 16.6394 14.8796 16.4745C14.1792 16.3096 13.6273 16.1934 13.2247 16.1253C12.8217 16.0575 12.2411 15.9706 11.4832 15.8645C10.8106 15.7672 10.3088 15.6902 9.97747 15.6339C9.64645 15.5773 9.20847 15.4903 8.66322 15.3725C8.11826 15.2549 7.70457 15.1359 7.42248 15.0159C7.14046 14.896 6.83381 14.7412 6.50234 14.5518C6.17087 14.3623 5.91913 14.1393 5.74694 13.883C5.57501 13.6264 5.45387 13.3326 5.38389 13.0013C5.20089 12.1352 5.44977 11.3438 6.13098 10.6278C6.81225 9.91172 7.78387 9.42024 9.04575 9.15363C9.60331 9.03582 10.1872 8.98887 10.7956 9.01353C11.404 9.03819 11.9337 9.09883 12.3845 9.19669C12.8357 9.29448 13.2671 9.41631 13.6796 9.56193C14.092 9.70776 14.3866 9.82173 14.5637 9.90409C14.7407 9.98653 14.8536 10.0425 14.9011 10.0724C15.101 10.1632 15.2892 10.17 15.4671 10.0926C15.6636 10.0378 15.7949 9.90342 15.8611 9.69003L16.8857 6.55897C16.9912 6.27063 16.9071 6.03549 16.6326 5.85379C16.5367 5.79422 16.4186 5.72609 16.2767 5.64952C16.1359 5.5727 15.8378 5.44278 15.3825 5.25937C14.9276 5.07608 14.4554 4.9263 13.9663 4.81001C13.4768 4.69403 12.8537 4.60262 12.0973 4.53631C11.3413 4.46958 10.5763 4.47829 9.80291 4.56193L9.09226 1.19848C9.0546 1.02024 8.96396 0.886264 8.82054 0.796724C8.67688 0.707511 8.51191 0.682304 8.32566 0.721656L5.63582 1.28998C5.46318 1.32646 5.32655 1.41846 5.22596 1.5662C5.12538 1.71394 5.09256 1.87051 5.12756 2.03617L5.85433 5.47591C3.84967 6.29858 2.33654 7.50998 1.31482 9.10994C0.293264 10.7099 -0.032091 12.3887 0.339404 14.147C0.449753 14.6693 0.611393 15.1541 0.823846 15.6014C1.03624 16.0491 1.26531 16.4433 1.51079 16.7839C1.75618 17.1249 2.07008 17.4444 2.45225 17.7431C2.8344 18.0416 3.18933 18.2927 3.5167 18.4962C3.8442 18.6996 4.25675 18.8954 4.75412 19.083C5.25181 19.2708 5.67485 19.4178 6.02337 19.5237C6.37185 19.6291 6.82871 19.7395 7.39356 19.8525C7.95869 19.9662 8.40289 20.0485 8.72605 20.1002C9.04913 20.1516 9.49118 20.2248 10.0524 20.3187C10.826 20.4347 11.4012 20.5295 11.7775 20.6031C12.154 20.6767 12.6352 20.7879 13.222 20.9368C13.8082 21.0855 14.2471 21.2424 14.5388 21.4071C14.8302 21.5718 15.1092 21.7924 15.3758 22.0686C15.6424 22.3449 15.8136 22.6614 15.889 23.0183C16.1017 24.0248 15.8574 24.888 15.156 25.608C14.455 26.3286 13.5662 26.8025 12.4905 27.0298C11.9995 27.1335 11.497 27.1868 10.9842 27.1887C9.18744 27.2219 7.40548 26.7666 5.63814 25.8226L5.59022 25.7928C5.44108 25.6783 5.26949 25.6545 5.07589 25.7222C4.86871 25.7926 4.73205 25.9014 4.66614 26.0486L3.159 29.0618C3.01352 29.3587 3.08216 29.6169 3.36443 29.8368C3.4471 29.8992 3.58757 29.9896 3.78576 30.1071C3.98449 30.2252 4.34373 30.3984 4.86386 30.6285C5.38403 30.8582 5.94002 31.0597 6.53206 31.2344C7.12392 31.4087 7.85774 31.5496 8.734 31.6574C9.61016 31.7647 10.4984 31.7832 11.3993 31.7125L12.1059 35.0567C12.1409 35.2226 12.2343 35.3524 12.386 35.4469C12.5378 35.5415 12.6999 35.5701 12.8725 35.5337L15.5624 34.9653C15.7486 34.926 15.8894 34.8365 15.9846 34.6967C16.0798 34.557 16.1083 34.3978 16.0705 34.2191L15.3639 30.8749C17.4062 30.0975 18.9392 28.8652 19.9632 27.1782C20.9872 25.4912 21.2936 23.6731 20.8818 21.7241C20.7465 21.0874 20.5338 20.5068 20.241 19.9827Z" fill="#79A164" fill-opacity="0.65"/>
</svg>
