<svg width="26" height="45" viewBox="0 0 26 45" fill="none" xmlns="http://www.w3.org/2000/svg">
<path opacity="0.8" d="M24.9732 25.1816C24.6157 24.5216 24.233 23.9624 23.8256 23.5049C23.4183 23.0469 22.8852 22.6287 22.2252 22.2491C21.5658 21.8695 20.9826 21.5749 20.4761 21.3642C19.9698 21.1532 19.2908 20.9412 18.4393 20.7277C17.5885 20.5141 16.9182 20.363 16.4295 20.2738C15.9402 20.1849 15.2353 20.0703 14.3154 19.93C13.4989 19.8016 12.8898 19.7002 12.4875 19.6263C12.0856 19.5522 11.5537 19.4389 10.8915 19.2858C10.2296 19.1331 9.72684 18.9799 9.38367 18.8267C9.04059 18.6734 8.66731 18.4763 8.26361 18.2354C7.85991 17.9945 7.55256 17.7122 7.34136 17.3888C7.13048 17.0652 6.98083 16.6952 6.89284 16.2788C6.66279 15.19 6.9571 14.1989 7.77633 13.3066C8.59564 12.4143 9.76911 11.8066 11.2966 11.4839C11.9716 11.3413 12.6791 11.2878 13.417 11.3245C14.1549 11.3612 14.7978 11.4423 15.3454 11.5694C15.8934 11.6964 16.4176 11.8534 16.9191 12.04C17.4206 12.227 17.7788 12.3728 17.9943 12.4778C18.2097 12.583 18.3472 12.6542 18.405 12.6923C18.6482 12.8082 18.8765 12.8184 19.0915 12.723C19.3293 12.656 19.4872 12.4886 19.5654 12.2214L20.7782 8.30111C20.9034 7.94019 20.7993 7.64426 20.4648 7.41361C20.3478 7.33794 20.2041 7.25132 20.0312 7.15387C19.8599 7.05612 19.4972 6.89024 18.9433 6.65575C18.39 6.4214 17.8161 6.22895 17.222 6.07838C16.6273 5.92819 15.871 5.80758 14.9532 5.71723C14.0359 5.62634 13.1084 5.63006 12.1714 5.72774L11.278 1.49941C11.2307 1.27533 11.1195 1.10632 10.9448 0.992579C10.7698 0.879248 10.5695 0.846055 10.344 0.893692L7.0879 1.58166C6.87892 1.62582 6.71411 1.74001 6.59354 1.9245C6.47298 2.10899 6.43466 2.30519 6.47866 2.51345L7.39231 6.8377C4.96938 7.85137 3.1461 9.35759 1.92234 11.3561C0.698766 13.3547 0.320096 15.4588 0.787118 17.6692C0.925844 18.3258 1.12641 18.9359 1.38823 19.4993C1.64999 20.0633 1.93145 20.5601 2.23231 20.99C2.53306 21.4203 2.91669 21.8243 3.38289 22.2027C3.84907 22.581 4.28179 22.8996 4.68066 23.1581C5.07968 23.4165 5.58175 23.6661 6.18658 23.9062C6.79182 24.1467 7.30614 24.3352 7.72973 24.4714C8.15326 24.607 8.70825 24.7499 9.39421 24.897C10.0805 25.045 10.6199 25.1525 11.0122 25.2205C11.4044 25.288 11.9411 25.384 12.6225 25.5072C13.5616 25.6601 14.2599 25.7845 14.7168 25.8805C15.1741 25.9764 15.7586 26.1205 16.4715 26.3129C17.1837 26.505 17.7173 26.7061 18.0725 26.9156C18.4275 27.1251 18.7678 27.4046 19.0937 27.7538C19.4196 28.1031 19.6302 28.502 19.725 28.9507C19.9923 30.2159 19.7043 31.2972 18.8606 32.1943C18.0174 33.092 16.9442 33.6785 15.642 33.9536C15.0477 34.0792 14.4389 34.1413 13.8171 34.1389C11.6388 34.1636 9.47385 33.5753 7.32201 32.3738L7.26363 32.3359C7.08172 32.1908 6.87344 32.1594 6.63933 32.2425C6.38878 32.3289 6.22411 32.4641 6.14558 32.6483L4.34655 36.4161C4.17296 36.7874 4.25862 37.1122 4.60295 37.3908C4.70378 37.4699 4.87495 37.5847 5.11637 37.7341C5.35845 37.8841 5.79567 38.105 6.4285 38.3987C7.06138 38.6918 7.73743 38.95 8.45693 39.1749C9.17622 39.3992 10.0673 39.583 11.1308 39.7265C12.1942 39.8695 13.2714 39.9011 14.363 39.8209L15.2513 44.025C15.2954 44.2335 15.4098 44.3974 15.5947 44.5174C15.7797 44.6375 15.9764 44.675 16.1854 44.6309L19.4416 43.9429C19.667 43.8953 19.8368 43.7842 19.9509 43.6097C20.065 43.4352 20.0981 43.2357 20.0506 43.0111L19.1623 38.807C21.6313 37.8504 23.4785 36.3182 24.7041 34.2104C25.93 32.1026 26.2843 29.8235 25.7666 27.3733C25.5966 26.5728 25.3332 25.8421 24.9732 25.1816Z" fill="#79A164"/>
</svg>
